<svg width="100" height="100" viewBox="0 0 24 24" fill="none" xmlns="http://www.w3.org/2000/svg">
  <path d="M12 2C11.39 2 10.74 2.07 10.14 2.18C9.57 2.29 9.02 2.45 8.53 2.68C8.01 2.93 7.57 3.26 7.19 3.66C6.46 4.39 6 5.34 6 6.33C6 6.97 6.19 7.57 6.51 8.04C6.76 8.43 7.14 8.75 7.57 8.93C7.86 9.04 8.2 9.08 8.51 9.04C8.83 9 9.12 8.9 9.37 8.74C9.81 8.49 10.24 8.24 10.67 8C11.1 7.76 11.55 7.54 12 7.54C12.45 7.54 12.9 7.76 13.33 8C13.76 8.24 14.19 8.49 14.63 8.74C14.88 8.9 15.17 9 15.49 9.04C15.8 9.08 16.14 9.04 16.43 8.93C16.86 8.75 17.24 8.43 17.49 8.04C17.81 7.57 18 6.97 18 6.33C18 5.34 17.54 4.39 16.81 3.66C16.43 3.26 15.99 2.93 15.47 2.68C14.98 2.45 14.43 2.29 13.86 2.18C13.26 2.07 12.61 2 12 2ZM12 3.5C12.49 3.5 12.98 3.57 13.46 3.71C13.89 3.83 14.32 4.02 14.69 4.27C15.18 4.6 15.5 5.12 15.5 5.67C15.5 5.95 15.39 6.21 15.19 6.4C15.01 6.58 14.75 6.69 14.46 6.72C14.24 6.75 14.02 6.71 13.81 6.6C13.38 6.36 12.95 6.11 12.52 5.87C12.24 5.71 11.76 5.71 11.48 5.87C11.05 6.11 10.62 6.36 10.19 6.6C9.98 6.71 9.76 6.75 9.54 6.72C9.25 6.69 8.99 6.58 8.81 6.4C8.61 6.21 8.5 5.95 8.5 5.67C8.5 5.12 8.82 4.6 9.31 4.27C9.68 4.02 10.11 3.83 10.54 3.71C11.02 3.57 11.51 3.5 12 3.5ZM12 9C10.3 9 8.71 10.05 7.9 11.61C7.14 13.04 6.82 14.87 6.82 16.5C6.82 17.25 6.97 17.99 7.25 18.67C7.48 19.22 7.84 19.71 8.31 20.1C8.95 20.64 9.75 21 10.67 21C11.02 21 11.37 20.93 11.7 20.78C12.1 20.6 12.55 20.5 13 20.5C13.45 20.5 13.9 20.6 14.3 20.78C14.63 20.93 14.98 21 15.33 21C16.25 21 17.05 20.64 17.69 20.1C18.16 19.71 18.52 19.22 18.75 18.67C19.03 17.99 19.18 17.25 19.18 16.5C19.18 14.87 18.86 13.04 18.1 11.61C17.29 10.05 15.7 9 14 9H12Z" fill="currentColor"/>
</svg>  
